<svg xmlns="http://www.w3.org/2000/svg" viewBox="0 0 170 22" role="img" aria-label="Forward">
    <path fill="#ff3506" d="M118.901 1h-16.95v4.057h13.119L99.081 21h5.753l13.097-13.059V21H122V4.09c0-1.706-1.393-3.09-3.099-3.09"/>
    <path fill="currentColor" d="M37.452 3.668c-.86-.879-1.882-1.557-3.058-2.039s-2.46-.721-3.85-.721-2.673.239-3.85.721c-1.176.482-2.203 1.16-3.071 2.039-.873.879-1.548 1.932-2.032 3.16-.483 1.228-.723 2.585-.723 4.06v.196c0 1.497.24 2.862.723 4.09s1.159 2.282 2.032 3.16c.873.879 1.895 1.557 3.071 2.039s2.46.721 3.85.721 2.673-.239 3.85-.721c1.176-.482 2.194-1.16 3.058-2.039s1.536-1.932 2.015-3.16c.483-1.228.723-2.593.723-4.09v-.196c0-1.48-.24-2.832-.723-4.06-.479-1.228-1.151-2.282-2.015-3.16m-1.292 7.417c0 1.292-.24 2.401-.723 3.327-.483.925-1.146 1.629-1.989 2.12s-1.814.734-2.904.734-2.066-.243-2.917-.734c-.851-.49-1.518-1.198-2.002-2.12-.483-.926-.723-2.034-.723-3.327v-.196c0-1.275.24-2.376.723-3.301.483-.926 1.151-1.629 2.002-2.12.851-.49 1.826-.734 2.917-.734s2.062.247 2.904.734c.843.49 1.506 1.198 1.989 2.12.483.926.723 2.026.723 3.301zm22.483 2.086c1.071-.497 1.9-1.222 2.495-2.185.591-.963.886-2.149.886-3.556s-.295-2.563-.886-3.516c-.591-.954-1.424-1.675-2.495-2.171C57.572 1.246 56.324 1 54.892 1H46v20h4.069v-7.086h4.148L58.013 21h4.616l-4.32-7.697c.106-.044.225-.084.335-.132Zm-8.574-8.769h4.62c.957 0 1.724.286 2.306.857q.873.8565.873 2.229c0 1.3725-.291 1.701-.873 2.242-.582.545-1.353.813-2.306.813h-4.62zm37.856 10.523L83.759 1h-4.497L75.07 14.934 71.526 1H67.4l5.528 20h4.214l4.355-15.029L85.879 21h4.157l5.559-20h-4.126zM5.042 4.657h10.492V1H1v20h4.042v-7.455h9.804V9.941H5.042zm136.601 8.514c1.071-.497 1.9-1.222 2.491-2.185s.89-2.149.89-3.556-.295-2.563-.89-3.516c-.889-1.076-1.86-1.853-2.491-2.171-1.071-.497-2.323-.743-3.756-.743H129v20h4.069v-7.086h4.148L141.013 21h4.61l-4.32-7.697c.111-.044.23-.079.34-.132m-8.574-8.769h4.616c.957 0 1.724.286 2.305.857.583.571.874 1.314.874 2.229s-.291 1.701-.874 2.242c-.582.545-1.353.813-2.305.813h-4.616zm35.092 2.453c-.506-1.2-1.208-2.237-2.107-3.112s-1.957-1.552-3.179-2.031C161.654 1.237 160.323 1 158.89 1H151v20h7.89c1.415 0 2.73-.237 3.942-.712s2.275-1.156 3.182-2.044c.908-.888 1.619-1.93 2.135-3.13s.771-2.532.771-4v-.286c.004-1.451-.251-2.774-.759-3.974Zm-3.394 4.255c0 1.218-.265 2.286-.789 3.2s-1.257 1.631-2.191 2.145c-.935.514-2.006.769-3.209.769h-3.509V4.767h3.509c1.244 0 2.329.255 3.254.756.926.505 1.649 1.209 2.165 2.114s.771 1.965.771 3.187v.286Z"/>
</svg>
